<svg xmlns="http://www.w3.org/2000/svg" xmlns:xlink="http://www.w3.org/1999/xlink" width="500" zoomAndPan="magnify" viewBox="0 0 375 374.999991" height="500" preserveAspectRatio="xMidYMid meet" version="1.0"><defs><g/><clipPath id="cdf4049c52"><path d="M 127 86.546875 L 248 86.546875 L 248 210.296875 L 127 210.296875 Z M 127 86.546875 " clip-rule="nonzero"/></clipPath></defs><path fill="#ff5c5c" d="M 187.488281 316.851562 C 185.371094 316.851562 183.253906 316.800781 181.140625 316.695312 C 179.027344 316.589844 176.914062 316.4375 174.808594 316.226562 C 172.703125 316.019531 170.601562 315.761719 168.507812 315.449219 C 166.414062 315.140625 164.328125 314.777344 162.25 314.367188 C 160.175781 313.953125 158.109375 313.488281 156.054688 312.972656 C 154 312.460938 151.960938 311.894531 149.9375 311.28125 C 147.910156 310.667969 145.902344 310.003906 143.90625 309.289062 C 141.914062 308.574219 139.9375 307.8125 137.984375 307.003906 C 136.027344 306.195312 134.09375 305.335938 132.179688 304.429688 C 130.265625 303.527344 128.375 302.574219 126.507812 301.574219 C 124.640625 300.578125 122.796875 299.535156 120.980469 298.445312 C 119.167969 297.359375 117.378906 296.226562 115.617188 295.050781 C 113.859375 293.875 112.128906 292.65625 110.425781 291.394531 C 108.726562 290.132812 107.058594 288.832031 105.421875 287.488281 C 103.785156 286.144531 102.183594 284.761719 100.613281 283.339844 C 99.042969 281.917969 97.511719 280.457031 96.015625 278.960938 C 94.519531 277.464844 93.058594 275.933594 91.636719 274.363281 C 90.214844 272.792969 88.832031 271.191406 87.488281 269.554688 C 86.144531 267.917969 84.84375 266.25 83.582031 264.550781 C 82.320312 262.847656 81.101562 261.117188 79.925781 259.359375 C 78.75 257.597656 77.617188 255.808594 76.53125 253.992188 C 75.441406 252.179688 74.398438 250.335938 73.398438 248.46875 C 72.402344 246.601562 71.449219 244.710938 70.546875 242.796875 C 69.640625 240.882812 68.78125 238.949219 67.972656 236.992188 C 67.164062 235.039062 66.402344 233.0625 65.6875 231.070312 C 64.972656 229.074219 64.308594 227.066406 63.695312 225.039062 C 63.082031 223.015625 62.515625 220.972656 62.003906 218.921875 C 61.488281 216.867188 61.023438 214.800781 60.609375 212.726562 C 60.199219 210.648438 59.835938 208.5625 59.523438 206.46875 C 59.214844 204.375 58.957031 202.273438 58.75 200.167969 C 58.539062 198.0625 58.386719 195.949219 58.28125 193.835938 C 58.175781 191.722656 58.125 189.605469 58.125 187.488281 C 58.125 185.371094 58.175781 183.253906 58.28125 181.140625 C 58.386719 179.027344 58.539062 176.914062 58.75 174.808594 C 58.957031 172.703125 59.214844 170.601562 59.523438 168.507812 C 59.835938 166.414062 60.199219 164.328125 60.609375 162.25 C 61.023438 160.175781 61.488281 158.109375 62.003906 156.054688 C 62.515625 154 63.082031 151.960938 63.695312 149.9375 C 64.308594 147.910156 64.972656 145.902344 65.6875 143.90625 C 66.402344 141.914062 67.164062 139.9375 67.972656 137.984375 C 68.78125 136.027344 69.640625 134.09375 70.546875 132.179688 C 71.449219 130.265625 72.402344 128.375 73.398438 126.507812 C 74.398438 124.640625 75.441406 122.796875 76.53125 120.980469 C 77.617188 119.167969 78.75 117.378906 79.925781 115.617188 C 81.101562 113.859375 82.320312 112.128906 83.582031 110.425781 C 84.84375 108.726562 86.144531 107.058594 87.488281 105.421875 C 88.832031 103.785156 90.214844 102.183594 91.636719 100.613281 C 93.058594 99.042969 94.519531 97.511719 96.015625 96.015625 C 97.511719 94.519531 99.042969 93.058594 100.613281 91.636719 C 102.183594 90.214844 103.785156 88.832031 105.421875 87.488281 C 107.058594 86.144531 108.726562 84.84375 110.425781 83.582031 C 112.128906 82.320312 113.859375 81.101562 115.617188 79.925781 C 117.378906 78.75 119.167969 77.617188 120.980469 76.53125 C 122.796875 75.441406 124.640625 74.398438 126.507812 73.398438 C 128.375 72.402344 130.265625 71.449219 132.179688 70.546875 C 134.09375 69.640625 136.027344 68.78125 137.984375 67.972656 C 139.9375 67.164062 141.914062 66.402344 143.90625 65.6875 C 145.902344 64.972656 147.910156 64.308594 149.9375 63.695312 C 151.960938 63.082031 154 62.515625 156.054688 62.003906 C 158.109375 61.488281 160.175781 61.023438 162.25 60.609375 C 164.328125 60.199219 166.414062 59.835938 168.507812 59.523438 C 170.601562 59.214844 172.703125 58.957031 174.808594 58.75 C 176.914062 58.539062 179.027344 58.386719 181.140625 58.28125 C 183.253906 58.175781 185.371094 58.125 187.488281 58.125 C 189.605469 58.125 191.722656 58.175781 193.835938 58.28125 C 195.949219 58.386719 198.0625 58.539062 200.167969 58.75 C 202.273438 58.957031 204.375 59.214844 206.46875 59.523438 C 208.5625 59.835938 210.648438 60.199219 212.726562 60.609375 C 214.800781 61.023438 216.867188 61.488281 218.921875 62.003906 C 220.972656 62.515625 223.015625 63.082031 225.039062 63.695312 C 227.066406 64.308594 229.074219 64.972656 231.070312 65.6875 C 233.0625 66.402344 235.039062 67.164062 236.992188 67.972656 C 238.949219 68.78125 240.882812 69.640625 242.796875 70.546875 C 244.710938 71.449219 246.601562 72.402344 248.46875 73.398438 C 250.335938 74.398438 252.179688 75.441406 253.992188 76.53125 C 255.808594 77.617188 257.597656 78.75 259.359375 79.925781 C 261.117188 81.101562 262.847656 82.320312 264.550781 83.582031 C 266.25 84.84375 267.917969 86.144531 269.554688 87.488281 C 271.191406 88.832031 272.792969 90.214844 274.363281 91.636719 C 275.933594 93.058594 277.464844 94.519531 278.960938 96.015625 C 280.457031 97.511719 281.917969 99.042969 283.339844 100.613281 C 284.761719 102.183594 286.144531 103.785156 287.488281 105.421875 C 288.832031 107.058594 290.132812 108.726562 291.394531 110.425781 C 292.65625 112.128906 293.875 113.859375 295.050781 115.617188 C 296.226562 117.378906 297.359375 119.167969 298.445312 120.980469 C 299.535156 122.796875 300.578125 124.640625 301.574219 126.507812 C 302.574219 128.375 303.527344 130.265625 304.429688 132.179688 C 305.335938 134.09375 306.195312 136.027344 307.003906 137.984375 C 307.8125 139.9375 308.574219 141.914062 309.289062 143.90625 C 310.003906 145.902344 310.667969 147.910156 311.28125 149.9375 C 311.894531 151.960938 312.460938 154 312.972656 156.054688 C 313.488281 158.109375 313.953125 160.175781 314.367188 162.25 C 314.777344 164.328125 315.140625 166.414062 315.449219 168.507812 C 315.761719 170.601562 316.019531 172.703125 316.226562 174.808594 C 316.4375 176.914062 316.589844 179.027344 316.695312 181.140625 C 316.800781 183.253906 316.851562 185.371094 316.851562 187.488281 C 316.847656 189.605469 316.792969 191.71875 316.6875 193.832031 C 316.582031 195.949219 316.425781 198.058594 316.214844 200.164062 C 316.003906 202.269531 315.746094 204.371094 315.433594 206.460938 C 315.121094 208.554688 314.757812 210.640625 314.34375 212.714844 C 313.925781 214.792969 313.460938 216.855469 312.945312 218.90625 C 312.429688 220.960938 311.863281 223 311.25 225.023438 C 310.632812 227.050781 309.96875 229.058594 309.253906 231.050781 C 308.539062 233.042969 307.777344 235.015625 306.964844 236.972656 C 306.15625 238.925781 305.296875 240.859375 304.390625 242.773438 C 303.484375 244.6875 302.53125 246.574219 301.535156 248.441406 C 300.535156 250.308594 299.492188 252.148438 298.402344 253.964844 C 297.316406 255.777344 296.183594 257.566406 295.003906 259.324219 C 293.828125 261.085938 292.609375 262.8125 291.347656 264.511719 C 290.089844 266.214844 288.785156 267.882812 287.445312 269.515625 C 286.101562 271.152344 284.71875 272.753906 283.296875 274.324219 C 281.875 275.890625 280.417969 277.421875 278.921875 278.921875 C 277.421875 280.417969 275.890625 281.875 274.324219 283.296875 C 272.753906 284.71875 271.152344 286.101562 269.515625 287.445312 C 267.882812 288.785156 266.214844 290.089844 264.511719 291.347656 C 262.8125 292.609375 261.085938 293.828125 259.324219 295.003906 C 257.566406 296.183594 255.777344 297.316406 253.964844 298.402344 C 252.148438 299.492188 250.308594 300.535156 248.441406 301.535156 C 246.574219 302.53125 244.6875 303.484375 242.773438 304.390625 C 240.859375 305.296875 238.925781 306.15625 236.972656 306.964844 C 235.015625 307.777344 233.042969 308.539062 231.050781 309.253906 C 229.058594 309.96875 227.050781 310.632812 225.023438 311.25 C 223 311.863281 220.960938 312.429688 218.90625 312.945312 C 216.855469 313.460938 214.792969 313.925781 212.714844 314.34375 C 210.640625 314.757812 208.554688 315.121094 206.460938 315.433594 C 204.371094 315.746094 202.269531 316.003906 200.164062 316.214844 C 198.058594 316.425781 195.949219 316.582031 193.832031 316.6875 C 191.71875 316.792969 189.605469 316.847656 187.488281 316.851562 Z M 187.488281 59.3125 C 185.390625 59.3125 183.292969 59.363281 181.199219 59.464844 C 179.105469 59.570312 177.011719 59.722656 174.925781 59.929688 C 172.835938 60.136719 170.753906 60.390625 168.679688 60.699219 C 166.605469 61.007812 164.539062 61.367188 162.480469 61.773438 C 160.425781 62.183594 158.378906 62.644531 156.34375 63.152344 C 154.308594 63.664062 152.289062 64.222656 150.28125 64.832031 C 148.273438 65.441406 146.28125 66.097656 144.308594 66.804688 C 142.332031 67.511719 140.375 68.265625 138.4375 69.070312 C 136.5 69.871094 134.582031 70.722656 132.6875 71.617188 C 130.789062 72.515625 128.917969 73.457031 127.066406 74.445312 C 125.214844 75.4375 123.390625 76.46875 121.59375 77.546875 C 119.792969 78.625 118.019531 79.75 116.277344 80.914062 C 114.53125 82.078125 112.820312 83.285156 111.132812 84.535156 C 109.449219 85.785156 107.796875 87.074219 106.175781 88.40625 C 104.550781 89.738281 102.964844 91.105469 101.410156 92.515625 C 99.855469 93.925781 98.335938 95.371094 96.855469 96.855469 C 95.371094 98.335938 93.925781 99.855469 92.515625 101.410156 C 91.105469 102.964844 89.738281 104.550781 88.40625 106.175781 C 87.074219 107.796875 85.785156 109.449219 84.535156 111.132812 C 83.285156 112.820312 82.078125 114.53125 80.914062 116.277344 C 79.75 118.019531 78.625 119.792969 77.546875 121.59375 C 76.46875 123.390625 75.4375 125.214844 74.445312 127.066406 C 73.457031 128.917969 72.515625 130.789062 71.617188 132.6875 C 70.722656 134.582031 69.871094 136.5 69.070312 138.4375 C 68.265625 140.375 67.511719 142.332031 66.804688 144.308594 C 66.097656 146.28125 65.441406 148.273438 64.832031 150.28125 C 64.222656 152.289062 63.664062 154.308594 63.152344 156.34375 C 62.644531 158.378906 62.183594 160.425781 61.773438 162.480469 C 61.367188 164.539062 61.007812 166.605469 60.699219 168.679688 C 60.390625 170.753906 60.136719 172.835938 59.929688 174.925781 C 59.722656 177.011719 59.570312 179.105469 59.464844 181.199219 C 59.363281 183.292969 59.3125 185.390625 59.3125 187.488281 C 59.3125 189.585938 59.363281 191.683594 59.464844 193.777344 C 59.570312 195.871094 59.722656 197.964844 59.929688 200.050781 C 60.136719 202.140625 60.390625 204.21875 60.699219 206.296875 C 61.007812 208.371094 61.367188 210.4375 61.773438 212.492188 C 62.183594 214.550781 62.644531 216.597656 63.152344 218.632812 C 63.664062 220.667969 64.222656 222.6875 64.832031 224.695312 C 65.441406 226.703125 66.097656 228.695312 66.804688 230.667969 C 67.511719 232.644531 68.265625 234.601562 69.070312 236.539062 C 69.871094 238.476562 70.722656 240.394531 71.617188 242.289062 C 72.515625 244.1875 73.457031 246.058594 74.445312 247.910156 C 75.4375 249.761719 76.46875 251.585938 77.546875 253.382812 C 78.625 255.183594 79.75 256.953125 80.914062 258.699219 C 82.078125 260.441406 83.285156 262.15625 84.535156 263.84375 C 85.785156 265.527344 87.074219 267.179688 88.40625 268.800781 C 89.738281 270.421875 91.105469 272.011719 92.515625 273.566406 C 93.925781 275.121094 95.371094 276.640625 96.855469 278.121094 C 98.335938 279.605469 99.855469 281.050781 101.410156 282.460938 C 102.964844 283.867188 104.550781 285.238281 106.175781 286.570312 C 107.796875 287.902344 109.449219 289.191406 111.132812 290.441406 C 112.820312 291.691406 114.53125 292.898438 116.277344 294.0625 C 118.019531 295.226562 119.792969 296.351562 121.59375 297.429688 C 123.390625 298.507812 125.214844 299.539062 127.066406 300.53125 C 128.917969 301.519531 130.789062 302.460938 132.6875 303.359375 C 134.582031 304.253906 136.5 305.105469 138.4375 305.90625 C 140.375 306.710938 142.332031 307.464844 144.308594 308.171875 C 146.28125 308.878906 148.273438 309.535156 150.28125 310.144531 C 152.289062 310.753906 154.308594 311.3125 156.34375 311.824219 C 158.378906 312.332031 160.425781 312.792969 162.480469 313.203125 C 164.539062 313.609375 166.605469 313.96875 168.679688 314.277344 C 170.753906 314.585938 172.835938 314.839844 174.925781 315.046875 C 177.011719 315.253906 179.105469 315.40625 181.199219 315.511719 C 183.292969 315.613281 185.390625 315.664062 187.488281 315.664062 C 189.585938 315.664062 191.683594 315.613281 193.777344 315.511719 C 195.871094 315.40625 197.964844 315.253906 200.050781 315.046875 C 202.140625 314.839844 204.21875 314.585938 206.296875 314.277344 C 208.371094 313.96875 210.4375 313.609375 212.492188 313.203125 C 214.550781 312.792969 216.597656 312.332031 218.632812 311.824219 C 220.667969 311.3125 222.6875 310.753906 224.695312 310.144531 C 226.703125 309.535156 228.695312 308.878906 230.667969 308.171875 C 232.644531 307.464844 234.601562 306.710938 236.539062 305.90625 C 238.476562 305.105469 240.394531 304.253906 242.289062 303.359375 C 244.1875 302.460938 246.058594 301.519531 247.910156 300.53125 C 249.761719 299.539062 251.585938 298.507812 253.382812 297.429688 C 255.183594 296.351562 256.953125 295.226562 258.699219 294.0625 C 260.441406 292.898438 262.15625 291.691406 263.84375 290.441406 C 265.527344 289.191406 267.179688 287.902344 268.800781 286.570312 C 270.421875 285.238281 272.011719 283.871094 273.566406 282.460938 C 275.121094 281.050781 276.640625 279.605469 278.121094 278.121094 C 279.605469 276.640625 281.050781 275.121094 282.460938 273.566406 C 283.867188 272.011719 285.238281 270.421875 286.570312 268.800781 C 287.902344 267.179688 289.191406 265.527344 290.441406 263.84375 C 291.691406 262.15625 292.898438 260.441406 294.0625 258.699219 C 295.226562 256.953125 296.351562 255.183594 297.429688 253.382812 C 298.507812 251.585938 299.539062 249.761719 300.53125 247.910156 C 301.519531 246.058594 302.460938 244.1875 303.359375 242.289062 C 304.253906 240.394531 305.105469 238.476562 305.90625 236.539062 C 306.710938 234.601562 307.464844 232.644531 308.171875 230.667969 C 308.878906 228.695312 309.535156 226.703125 310.144531 224.695312 C 310.753906 222.6875 311.3125 220.667969 311.824219 218.632812 C 312.332031 216.597656 312.792969 214.550781 313.203125 212.492188 C 313.609375 210.4375 313.96875 208.371094 314.277344 206.296875 C 314.585938 204.21875 314.839844 202.140625 315.046875 200.050781 C 315.253906 197.964844 315.40625 195.871094 315.511719 193.777344 C 315.613281 191.683594 315.664062 189.585938 315.664062 187.488281 C 315.660156 185.390625 315.609375 183.296875 315.503906 181.199219 C 315.398438 179.105469 315.242188 177.015625 315.035156 174.929688 C 314.828125 172.84375 314.566406 170.761719 314.257812 168.6875 C 313.949219 166.613281 313.589844 164.546875 313.179688 162.492188 C 312.765625 160.4375 312.304688 158.390625 311.796875 156.355469 C 311.285156 154.324219 310.722656 152.304688 310.113281 150.296875 C 309.503906 148.289062 308.84375 146.300781 308.136719 144.324219 C 307.429688 142.351562 306.671875 140.394531 305.871094 138.460938 C 305.066406 136.523438 304.214844 134.605469 303.316406 132.710938 C 302.421875 130.816406 301.476562 128.945312 300.488281 127.09375 C 299.5 125.246094 298.464844 123.421875 297.386719 121.625 C 296.308594 119.824219 295.183594 118.054688 294.019531 116.3125 C 292.851562 114.566406 291.644531 112.855469 290.394531 111.167969 C 289.148438 109.484375 287.855469 107.832031 286.527344 106.210938 C 285.195312 104.589844 283.824219 103.003906 282.417969 101.449219 C 281.007812 99.898438 279.5625 98.378906 278.082031 96.894531 C 276.597656 95.414062 275.078125 93.96875 273.527344 92.558594 C 271.972656 91.148438 270.386719 89.78125 268.765625 88.449219 C 267.144531 87.121094 265.492188 85.828125 263.804688 84.578125 C 262.121094 83.332031 260.410156 82.121094 258.664062 80.957031 C 256.921875 79.792969 255.152344 78.667969 253.351562 77.589844 C 251.554688 76.511719 249.730469 75.476562 247.882812 74.488281 C 246.03125 73.5 244.160156 72.554688 242.265625 71.660156 C 240.371094 70.761719 238.453125 69.910156 236.515625 69.105469 C 234.578125 68.304688 232.625 67.546875 230.652344 66.839844 C 228.675781 66.132812 226.6875 65.472656 224.679688 64.863281 C 222.671875 64.253906 220.652344 63.691406 218.621094 63.179688 C 216.585938 62.671875 214.539062 62.210938 212.484375 61.796875 C 210.429688 61.386719 208.363281 61.027344 206.289062 60.71875 C 204.214844 60.410156 202.132812 60.148438 200.046875 59.941406 C 197.960938 59.734375 195.871094 59.578125 193.773438 59.472656 C 191.679688 59.367188 189.585938 59.3125 187.488281 59.3125 Z M 187.488281 59.3125 " fill-opacity="1" fill-rule="nonzero"/><g fill="#ff5c5c" fill-opacity="1"><g transform="translate(91.928901, 255.690658)"><g><path d="M 2.15625 -29.703125 L 13 -29.703125 C 16.019531 -29.703125 18.460938 -28.921875 20.328125 -27.359375 C 22.203125 -25.796875 23.140625 -23.523438 23.140625 -20.546875 C 23.140625 -17.578125 22.191406 -15.242188 20.296875 -13.546875 C 18.398438 -11.859375 15.96875 -11.015625 13 -11.015625 L 8.921875 -11.015625 L 8.921875 0 L 2.15625 0 Z M 8.921875 -16.421875 L 10.84375 -16.421875 C 12.351562 -16.421875 13.59375 -16.722656 14.5625 -17.328125 C 15.53125 -17.941406 16.015625 -18.945312 16.015625 -20.34375 C 16.015625 -21.757812 15.53125 -22.769531 14.5625 -23.375 C 13.59375 -23.988281 12.351562 -24.296875 10.84375 -24.296875 L 8.921875 -24.296875 Z M 8.921875 -16.421875 "/></g></g></g><g fill="#ff5c5c" fill-opacity="1"><g transform="translate(119.497078, 255.690658)"><g><path d="M 17.25 -29.703125 L 29.234375 0 L 21.953125 0 L 19.765625 -5.9375 L 8.453125 -5.9375 L 6.265625 0 L -1.015625 0 L 10.984375 -29.703125 Z M 17.453125 -11.875 L 14.140625 -20.515625 L 14.078125 -20.515625 L 10.765625 -11.875 Z M 17.453125 -11.875 "/></g></g></g><g fill="#ff5c5c" fill-opacity="1"><g transform="translate(151.311871, 255.690658)"><g><path d="M 2.15625 -29.703125 L 13 -29.703125 C 16.019531 -29.703125 18.460938 -28.921875 20.328125 -27.359375 C 22.203125 -25.796875 23.140625 -23.523438 23.140625 -20.546875 C 23.140625 -17.578125 22.191406 -15.242188 20.296875 -13.546875 C 18.398438 -11.859375 15.96875 -11.015625 13 -11.015625 L 8.921875 -11.015625 L 8.921875 0 L 2.15625 0 Z M 8.921875 -16.421875 L 10.84375 -16.421875 C 12.351562 -16.421875 13.59375 -16.722656 14.5625 -17.328125 C 15.53125 -17.941406 16.015625 -18.945312 16.015625 -20.34375 C 16.015625 -21.757812 15.53125 -22.769531 14.5625 -23.375 C 13.59375 -23.988281 12.351562 -24.296875 10.84375 -24.296875 L 8.921875 -24.296875 Z M 8.921875 -16.421875 "/></g></g></g><g fill="#ff5c5c" fill-opacity="1"><g transform="translate(178.880052, 255.690658)"><g><path d="M 2.15625 -29.703125 L 12.78125 -29.703125 C 15.632812 -29.703125 17.960938 -28.9375 19.765625 -27.40625 C 21.566406 -25.882812 22.46875 -23.707031 22.46875 -20.875 C 22.46875 -18.695312 21.921875 -16.867188 20.828125 -15.390625 C 19.734375 -13.910156 18.25 -12.875 16.375 -12.28125 L 26.609375 0 L 18 0 L 8.921875 -11.734375 L 8.921875 0 L 2.15625 0 Z M 8.921875 -16.53125 L 9.71875 -16.53125 C 10.34375 -16.53125 10.867188 -16.539062 11.296875 -16.5625 C 11.734375 -16.582031 12.226562 -16.664062 12.78125 -16.8125 C 13.332031 -16.957031 13.773438 -17.160156 14.109375 -17.421875 C 14.441406 -17.679688 14.726562 -18.0625 14.96875 -18.5625 C 15.21875 -19.070312 15.34375 -19.6875 15.34375 -20.40625 C 15.34375 -21.125 15.21875 -21.734375 14.96875 -22.234375 C 14.726562 -22.742188 14.441406 -23.128906 14.109375 -23.390625 C 13.773438 -23.660156 13.332031 -23.867188 12.78125 -24.015625 C 12.226562 -24.160156 11.734375 -24.242188 11.296875 -24.265625 C 10.867188 -24.285156 10.34375 -24.296875 9.71875 -24.296875 L 8.921875 -24.296875 Z M 8.921875 -16.53125 "/></g></g></g><g fill="#ff5c5c" fill-opacity="1"><g transform="translate(208.247638, 255.690658)"><g><path d="M 8.921875 -29.703125 L 8.921875 0 L 2.15625 0 L 2.15625 -29.703125 Z M 8.921875 -29.703125 "/></g></g></g><g fill="#ff5c5c" fill-opacity="1"><g transform="translate(222.93202, 255.690658)"><g><path d="M 29.203125 0 L 19.875 0 L 8.921875 -12.59375 L 8.921875 0 L 2.15625 0 L 2.15625 -29.703125 L 8.921875 -29.703125 L 8.921875 -17.5625 L 19.109375 -29.703125 L 27.328125 -29.703125 L 15.375 -15.625 Z M 29.203125 0 "/></g></g></g><g fill="#ff5c5c" fill-opacity="1"><g transform="translate(254.854774, 255.690658)"><g><path d="M 17.25 -29.703125 L 29.234375 0 L 21.953125 0 L 19.765625 -5.9375 L 8.453125 -5.9375 L 6.265625 0 L -1.015625 0 L 10.984375 -29.703125 Z M 17.453125 -11.875 L 14.140625 -20.515625 L 14.078125 -20.515625 L 10.765625 -11.875 Z M 17.453125 -11.875 "/></g></g></g><g clip-path="url(#cdf4049c52)"><path fill="#ff5c5c" d="M 145.941406 189.421875 C 144.953125 189.054688 143.835938 188.929688 142.847656 188.929688 C 142.597656 190.039062 142.597656 191.152344 142.847656 192.136719 C 143.21875 193.617188 143.957031 195.097656 145.074219 196.207031 C 146.1875 197.316406 147.546875 198.058594 148.90625 198.550781 C 150.023438 198.796875 151.132812 198.921875 152.25 198.796875 C 152.25 198.179688 152.25 197.5625 152.25 197.074219 C 152.128906 196.332031 151.878906 195.714844 151.753906 194.976562 C 151.507812 194.480469 151.132812 193.863281 150.890625 193.246094 C 150.515625 192.753906 150.144531 192.257812 149.652344 191.769531 C 148.664062 190.65625 147.300781 189.917969 145.941406 189.421875 Z M 151.753906 126.644531 L 152.25 126.644531 C 153.984375 126.394531 155.714844 125.65625 156.949219 124.542969 C 158.308594 123.558594 159.425781 122.078125 160.042969 120.476562 C 160.785156 118.75 160.910156 117.019531 160.664062 115.296875 C 160.535156 114.679688 160.414062 114.0625 160.167969 113.316406 C 160.042969 113.566406 159.796875 113.816406 159.671875 114.0625 C 157.445312 116.898438 153.238281 118.5 152 121.957031 C 151.382812 123.433594 151.261719 125.039062 151.753906 126.644531 Z M 162.765625 140.703125 C 163.386719 140.703125 164.125 140.703125 164.746094 140.578125 C 167.097656 140.332031 169.445312 139.46875 171.425781 137.988281 C 173.40625 136.382812 174.894531 134.414062 175.753906 132.191406 C 176.125 131.085938 176.5 129.851562 176.621094 128.617188 C 176.253906 128.863281 176.003906 128.988281 175.753906 129.105469 C 170.804688 131.820312 164.496094 131.085938 162.890625 138.234375 C 162.765625 139.101562 162.640625 139.839844 162.765625 140.703125 Z M 162.519531 96.300781 C 161.773438 97.65625 161.160156 99.261719 161.035156 100.863281 C 169.445312 102.960938 171.300781 95.433594 176.253906 91.613281 L 176.5 91.488281 C 175.511719 91.117188 174.519531 90.871094 173.527344 90.871094 C 171.425781 90.625 169.199219 90.996094 167.21875 91.984375 C 165.242188 92.96875 163.628906 94.449219 162.519531 96.300781 Z M 166.230469 195.464844 C 166.351562 195.59375 166.480469 195.714844 166.601562 195.714844 C 167.714844 194.480469 168.457031 192.875 168.707031 191.273438 C 169.078125 188.4375 167.34375 185.109375 166.105469 182.390625 C 165.484375 183.007812 164.746094 184.492188 164.375 185.230469 C 163.507812 186.957031 163.257812 188.804688 163.628906 190.65625 C 164.003906 192.632812 164.867188 194.234375 166.230469 195.464844 Z M 149.035156 175.980469 L 149.15625 175.980469 C 148.664062 174.007812 147.546875 172.277344 146.1875 171.046875 C 142.722656 167.964844 139.632812 169.070312 135.792969 167.59375 C 135.671875 167.59375 135.542969 167.59375 135.300781 167.46875 C 135.671875 168.824219 136.042969 170.058594 136.78125 171.042969 C 138.019531 173.019531 139.875 174.625 142.105469 175.609375 C 144.332031 176.476562 146.808594 176.597656 149.035156 175.980469 Z M 229.082031 189.421875 C 230.070312 189.054688 231.1875 188.929688 232.175781 188.929688 C 232.425781 190.039062 232.425781 191.152344 232.175781 192.136719 C 231.804688 193.617188 231.058594 195.097656 229.949219 196.207031 C 228.832031 197.316406 227.472656 198.058594 226.113281 198.550781 C 225 198.796875 223.882812 198.921875 222.773438 198.796875 C 222.773438 198.179688 222.773438 197.5625 222.773438 197.074219 C 222.894531 196.332031 223.144531 195.714844 223.390625 194.976562 C 223.515625 194.480469 223.882812 193.863281 224.132812 193.246094 C 224.503906 192.753906 224.878906 192.257812 225.371094 191.769531 C 226.359375 190.65625 227.722656 189.917969 229.082031 189.421875 Z M 223.269531 126.644531 L 222.773438 126.644531 C 221.039062 126.394531 219.308594 125.65625 218.070312 124.542969 C 216.710938 123.558594 215.597656 122.078125 214.976562 120.476562 C 214.238281 118.75 214.113281 117.019531 214.359375 115.296875 C 214.480469 114.679688 214.609375 114.0625 214.855469 113.316406 C 214.976562 113.566406 215.226562 113.816406 215.347656 114.0625 C 217.574219 116.898438 221.785156 118.5 223.019531 121.957031 C 223.640625 123.433594 223.761719 125.039062 223.269531 126.644531 Z M 212.253906 140.703125 C 211.636719 140.703125 210.894531 140.703125 210.277344 140.578125 C 207.925781 140.332031 205.574219 139.46875 203.597656 137.988281 C 201.617188 136.382812 200.128906 134.414062 199.265625 132.191406 C 198.890625 131.085938 198.523438 129.851562 198.523438 128.617188 C 198.769531 128.863281 199.019531 128.988281 199.265625 129.105469 C 204.210938 131.820312 210.527344 131.085938 212.132812 138.234375 C 212.253906 139.101562 212.382812 139.839844 212.253906 140.703125 Z M 212.503906 96.300781 C 213.246094 97.65625 213.863281 99.261719 213.988281 100.863281 C 205.574219 102.960938 203.71875 95.433594 198.769531 91.613281 L 198.523438 91.488281 C 199.511719 91.117188 200.503906 90.871094 201.492188 90.871094 C 203.59375 90.625 205.824219 90.996094 207.800781 91.984375 C 209.78125 92.96875 211.386719 94.449219 212.503906 96.300781 Z M 208.792969 195.464844 C 208.667969 195.59375 208.542969 195.714844 208.421875 195.714844 C 207.304688 194.480469 206.566406 192.875 206.316406 191.273438 C 205.945312 188.4375 207.679688 185.109375 208.917969 182.390625 C 209.535156 183.007812 210.277344 184.492188 210.648438 185.230469 C 211.515625 186.957031 211.761719 188.804688 211.386719 190.65625 C 211.019531 192.632812 210.15625 194.234375 208.792969 195.464844 Z M 225.988281 175.980469 L 225.867188 175.980469 C 226.359375 174.007812 227.472656 172.277344 228.832031 171.046875 C 232.296875 167.964844 235.390625 169.070312 239.230469 167.59375 C 239.351562 167.59375 239.472656 167.59375 239.722656 167.46875 C 239.351562 168.824219 238.980469 170.058594 238.242188 171.042969 C 237.003906 173.019531 235.148438 174.625 232.917969 175.609375 C 230.691406 176.476562 228.214844 176.597656 225.988281 175.980469 Z M 218.9375 200.03125 C 217.824219 201.757812 216.339844 203.238281 214.730469 204.226562 C 212.75 205.457031 210.648438 206.074219 208.300781 206.199219 C 206.070312 206.324219 203.84375 205.828125 201.863281 204.84375 C 199.886719 203.855469 198.152344 202.375 196.914062 200.402344 L 196.792969 200.28125 C 199.019531 201.511719 201.617188 202.003906 204.210938 201.757812 C 207.0625 201.386719 209.53125 200.152344 211.515625 198.429688 C 213.371094 196.578125 214.855469 194.109375 215.347656 191.398438 C 215.84375 188.683594 215.476562 185.972656 214.238281 183.503906 C 212.503906 179.804688 210.027344 178.445312 206.566406 176.71875 C 206.316406 183.503906 201.492188 184.492188 202.484375 191.769531 C 202.730469 193.863281 203.597656 195.839844 204.835938 197.5625 C 204.460938 197.691406 204.089844 197.691406 203.84375 197.8125 C 201.863281 197.933594 200.007812 197.5625 198.398438 196.699219 C 196.914062 195.839844 195.675781 194.480469 194.808594 192.875 C 194.441406 189.179688 194.316406 181.527344 195.183594 178.199219 C 197.53125 170.183594 208.792969 169.9375 214.976562 173.757812 C 218.320312 175.859375 220.796875 178.695312 225 179.804688 C 228.09375 180.667969 231.308594 180.417969 234.402344 179.1875 C 237.496094 177.953125 239.96875 175.859375 241.578125 173.140625 C 243.3125 170.550781 244.054688 167.347656 243.804688 164.015625 L 243.433594 160.6875 L 240.710938 162.535156 C 239.847656 163.152344 238.855469 163.523438 237.867188 163.890625 C 233.414062 165.496094 230.816406 164.015625 226.238281 168.085938 C 224.382812 169.6875 223.019531 171.785156 222.277344 174.253906 C 220.796875 173.390625 217.574219 169.441406 209.660156 167.59375 C 209.78125 167.46875 210.027344 167.347656 210.15625 167.21875 C 212.132812 165.375 213.863281 163.273438 215.226562 161.054688 C 215.71875 160.070312 215.347656 158.835938 214.480469 158.339844 C 213.492188 157.722656 212.253906 158.097656 211.761719 159.082031 C 210.648438 160.933594 209.160156 162.78125 207.554688 164.261719 C 203.222656 167.964844 199.265625 167.835938 195.183594 171.417969 C 195.058594 171.539062 194.808594 171.660156 194.6875 171.785156 C 194.191406 165.863281 195.183594 159.453125 200.128906 155.628906 C 203.472656 152.792969 208.050781 152.050781 212.75 153.285156 C 214.976562 153.777344 217.082031 154.765625 218.9375 156.125 L 219.0625 156.246094 C 223.882812 159.082031 228.339844 160.6875 232.425781 160.6875 C 236.628906 160.6875 240.339844 159.203125 243.683594 156.125 L 243.804688 155.996094 C 245.539062 154.148438 246.777344 151.804688 247.515625 149.335938 C 248.136719 146.871094 248.136719 144.277344 247.644531 141.691406 C 247.023438 139.101562 245.785156 136.753906 244.175781 134.78125 C 242.445312 132.933594 240.339844 131.328125 237.992188 130.46875 C 237.125 129.972656 236.136719 129.605469 235.019531 129.234375 C 236.628906 126.644531 237.496094 123.808594 237.742188 120.96875 C 237.992188 117.148438 237.125 113.199219 235.148438 109.742188 C 233.042969 106.289062 230.070312 103.699219 226.484375 102.09375 C 223.882812 100.863281 220.917969 100.246094 217.945312 100.371094 C 217.703125 98.148438 216.957031 96.050781 215.84375 94.199219 C 214.359375 91.859375 212.253906 89.761719 209.535156 88.40625 C 206.933594 87.171875 203.96875 86.554688 201.121094 86.921875 C 198.890625 87.050781 195.304688 88.285156 192.089844 91.859375 C 197.78125 93.832031 198.523438 99.136719 203.472656 102.710938 C 204.460938 103.453125 205.449219 104.070312 206.566406 104.5625 C 205.945312 104.933594 205.449219 105.425781 204.957031 106.042969 C 202.234375 108.757812 200.378906 112.210938 199.636719 116.15625 C 199.515625 117.265625 200.128906 118.253906 201.246094 118.5 C 202.359375 118.625 203.347656 118.007812 203.597656 116.898438 C 204.089844 113.691406 205.574219 110.976562 207.679688 108.757812 C 209.90625 106.65625 212.625 105.054688 215.84375 104.5625 C 218.9375 103.945312 222.15625 104.316406 224.878906 105.671875 C 227.722656 106.90625 230.070312 109.003906 231.683594 111.714844 C 233.289062 114.433594 234.03125 117.636719 233.785156 120.59375 C 233.535156 123.3125 232.671875 125.902344 231.058594 128.121094 C 229.949219 127.875 228.589844 127.503906 227.226562 127.257812 C 227.722656 125.039062 227.597656 122.695312 226.855469 120.59375 C 225.246094 116.28125 217.082031 113.199219 214.238281 107.03125 L 213.371094 108.140625 C 211.761719 110.113281 210.773438 112.332031 210.398438 114.679688 C 210.027344 117.148438 210.277344 119.609375 211.265625 121.828125 C 212.132812 124.175781 213.617188 126.148438 215.597656 127.628906 C 217.453125 129.105469 219.679688 130.222656 222.15625 130.46875 C 225.617188 130.957031 228.464844 131.574219 230.9375 132.070312 C 233.164062 132.6875 235.019531 133.300781 236.257812 133.917969 L 236.382812 134.042969 C 238.242188 134.78125 239.847656 135.894531 241.085938 137.371094 C 242.324219 138.851562 243.3125 140.578125 243.683594 142.554688 C 244.175781 144.527344 244.175781 146.5 243.683594 148.351562 C 243.1875 150.203125 242.195312 151.804688 240.835938 153.28125 C 238.609375 155.378906 235.886719 156.613281 233.042969 156.738281 C 233.289062 156.492188 233.414062 156.367188 233.535156 156.121094 C 235.390625 154.273438 236.507812 151.679688 236.507812 148.84375 C 236.382812 146.011719 235.269531 143.414062 233.414062 141.5625 C 231.433594 139.46875 228.832031 138.484375 225.988281 138.234375 C 222.15625 137.867188 219.679688 138.730469 216.214844 139.839844 C 216.214844 139.101562 216.214844 138.234375 215.96875 137.5 C 213.988281 128.371094 207.433594 129.105469 201.121094 125.65625 C 200.007812 125.039062 199.019531 124.296875 198.03125 123.3125 L 195.304688 120.84375 L 194.6875 124.425781 C 194.191406 127.628906 194.441406 130.835938 195.675781 133.671875 C 196.792969 136.511719 198.648438 139.101562 201.246094 141.074219 C 203.71875 143.046875 206.8125 144.160156 209.90625 144.527344 C 211.265625 144.648438 212.75 144.648438 214.238281 144.527344 C 218.5625 143.910156 220.796875 141.691406 225.617188 142.179688 C 227.597656 142.308594 229.332031 142.925781 230.566406 144.277344 C 231.804688 145.511719 232.425781 147.117188 232.546875 148.847656 C 232.546875 150.570312 231.804688 152.296875 230.691406 153.410156 C 229.578125 154.640625 228.214844 155.378906 226.609375 155.503906 C 224.878906 154.890625 223.019531 154.023438 221.164062 152.792969 C 218.933594 151.308594 216.339844 150.074219 213.742188 149.460938 C 209.289062 148.222656 206.195312 148.222656 202.234375 149.832031 C 202.234375 149.089844 202.234375 148.222656 202.113281 147.488281 C 201.738281 145.882812 201.117188 144.527344 200.128906 143.292969 C 199.140625 142.0625 197.902344 141.195312 196.417969 140.457031 C 195.429688 140.085938 194.316406 140.457031 193.820312 141.445312 C 193.449219 142.429688 193.820312 143.660156 194.808594 144.160156 C 195.675781 144.527344 196.417969 145.019531 197.035156 145.761719 C 200.996094 150.691406 195.675781 153.777344 193.574219 157.105469 C 189.988281 163.027344 190.234375 170.550781 191.347656 177.214844 C 190.234375 181.527344 190.355469 189.917969 190.976562 194.480469 C 191.84375 200.152344 193.941406 205.335938 200.007812 208.296875 C 202.605469 209.652344 205.574219 210.269531 208.542969 210.148438 C 211.515625 210.019531 214.359375 209.160156 216.835938 207.679688 C 218.8125 206.324219 220.546875 204.71875 221.90625 202.621094 C 223.640625 202.871094 225.496094 202.742188 227.105469 202.375 C 229.203125 201.757812 231.308594 200.523438 232.792969 198.921875 C 234.402344 197.195312 235.515625 195.222656 236.011719 193.003906 C 236.507812 190.902344 236.378906 188.5625 235.640625 186.464844 L 235.269531 185.230469 L 234.03125 185.109375 C 231.925781 184.738281 229.824219 184.980469 227.84375 185.597656 C 225.867188 186.339844 224.011719 187.449219 222.523438 189.054688 C 221.90625 189.671875 221.289062 190.410156 220.796875 191.273438 C 220.296875 192.011719 219.929688 192.875 219.558594 193.742188 C 219.308594 194.605469 219.0625 195.59375 218.9375 196.578125 C 218.8125 197.5625 218.8125 198.550781 218.8125 199.539062 C 218.8125 199.664062 218.9375 199.910156 218.9375 200.03125 Z M 201.246094 105.671875 C 201.246094 103.945312 199.886719 102.59375 198.277344 102.59375 C 196.542969 102.59375 195.183594 103.945312 195.183594 105.671875 C 195.183594 107.402344 196.542969 108.757812 198.277344 108.757812 C 199.886719 108.757812 201.246094 107.402344 201.246094 105.671875 Z M 179.839844 105.671875 C 179.839844 103.945312 178.480469 102.59375 176.746094 102.59375 C 175.136719 102.59375 173.777344 103.945312 173.777344 105.671875 C 173.777344 107.402344 175.136719 108.757812 176.746094 108.757812 C 178.480469 108.757812 179.839844 107.402344 179.839844 105.671875 Z M 222.03125 165.742188 C 222.03125 164.015625 220.667969 162.660156 218.9375 162.660156 C 217.203125 162.660156 215.84375 164.015625 215.84375 165.742188 C 215.84375 167.46875 217.203125 168.828125 218.9375 168.828125 C 220.667969 168.828125 222.03125 167.46875 222.03125 165.742188 Z M 159.175781 165.742188 C 159.175781 164.015625 157.816406 162.660156 156.082031 162.660156 C 154.355469 162.660156 152.992188 164.015625 152.992188 165.742188 C 152.992188 167.46875 154.355469 168.828125 156.082031 168.828125 C 157.816406 168.828125 159.175781 167.46875 159.175781 165.742188 Z M 134.683594 126.519531 C 134.683594 124.792969 133.316406 123.433594 131.589844 123.433594 C 129.855469 123.433594 128.496094 124.792969 128.496094 126.519531 C 128.496094 128.246094 129.855469 129.605469 131.589844 129.605469 C 133.316406 129.605469 134.683594 128.246094 134.683594 126.519531 Z M 246.527344 126.519531 C 246.527344 124.792969 245.167969 123.433594 243.433594 123.433594 C 241.703125 123.433594 240.339844 124.792969 240.339844 126.519531 C 240.339844 128.246094 241.703125 129.605469 243.433594 129.605469 C 245.167969 129.605469 246.527344 128.246094 246.527344 126.519531 Z M 226.976562 94.570312 C 226.976562 92.847656 225.617188 91.488281 223.882812 91.488281 C 222.15625 91.488281 220.796875 92.847656 220.796875 94.570312 C 220.796875 96.300781 222.15625 97.65625 223.882812 97.65625 C 225.617188 97.65625 226.976562 96.300781 226.976562 94.570312 Z M 154.355469 94.570312 C 154.355469 92.847656 152.867188 91.488281 151.132812 91.488281 C 149.527344 91.488281 148.039062 92.847656 148.039062 94.570312 C 148.039062 96.300781 149.527344 97.65625 151.132812 97.65625 C 152.867188 97.65625 154.355469 96.300781 154.355469 94.570312 Z M 157.941406 183.625 C 157.941406 181.902344 156.453125 180.546875 154.722656 180.546875 C 153.117188 180.546875 151.628906 181.902344 151.628906 183.625 C 151.628906 185.355469 153.117188 186.710938 154.722656 186.710938 C 156.453125 186.710938 157.941406 185.355469 157.941406 183.625 Z M 223.390625 183.625 C 223.390625 181.902344 221.90625 180.546875 220.296875 180.546875 C 218.5625 180.546875 217.082031 181.902344 217.082031 183.625 C 217.082031 185.355469 218.5625 186.710938 220.296875 186.710938 C 221.90625 186.710938 223.390625 185.355469 223.390625 183.625 Z M 244.792969 182.886719 C 244.792969 181.160156 243.433594 179.804688 241.703125 179.804688 C 239.96875 179.804688 238.609375 181.160156 238.609375 182.886719 C 238.609375 184.613281 239.96875 185.972656 241.703125 185.972656 C 243.433594 185.972656 244.792969 184.613281 244.792969 182.886719 Z M 136.410156 182.886719 C 136.410156 181.160156 135.050781 179.804688 133.316406 179.804688 C 131.589844 179.804688 130.226562 181.160156 130.226562 182.886719 C 130.226562 184.613281 131.589844 185.972656 133.316406 185.972656 C 135.050781 185.972656 136.410156 184.613281 136.410156 182.886719 Z M 156.082031 200.03125 C 157.199219 201.757812 158.683594 203.238281 160.292969 204.226562 C 162.269531 205.457031 164.375 206.074219 166.722656 206.199219 C 168.949219 206.324219 171.179688 205.828125 173.160156 204.84375 C 175.136719 203.855469 176.871094 202.375 178.109375 200.402344 L 178.230469 200.28125 C 176.003906 201.511719 173.40625 202.003906 170.804688 201.757812 C 167.960938 201.386719 165.484375 200.152344 163.507812 198.429688 C 161.652344 196.578125 160.167969 194.109375 159.671875 191.398438 C 159.175781 188.683594 159.546875 185.972656 160.785156 183.503906 C 162.640625 179.804688 164.992188 178.445312 168.457031 176.71875 C 168.707031 183.503906 173.527344 184.492188 172.539062 191.769531 C 172.292969 193.863281 171.425781 195.839844 170.1875 197.5625 C 170.5625 197.691406 170.933594 197.691406 171.179688 197.8125 C 173.160156 197.933594 175.015625 197.5625 176.621094 196.699219 C 178.109375 195.839844 179.34375 194.480469 180.207031 192.875 C 180.582031 189.179688 180.707031 181.527344 179.839844 178.199219 C 177.488281 170.183594 166.230469 169.9375 160.042969 173.757812 C 156.703125 175.859375 154.226562 178.695312 150.023438 179.804688 C 146.929688 180.667969 143.714844 180.417969 140.621094 179.1875 C 137.527344 177.953125 135.050781 175.859375 133.445312 173.140625 C 131.710938 170.550781 130.96875 167.347656 131.21875 164.015625 L 131.589844 160.6875 L 134.3125 162.535156 C 135.175781 163.152344 136.164062 163.523438 137.15625 163.890625 C 141.609375 165.496094 144.207031 164.015625 148.785156 168.085938 C 150.640625 169.6875 152 171.785156 152.746094 174.253906 C 154.355469 173.390625 157.445312 169.441406 165.363281 167.59375 C 165.242188 167.46875 164.992188 167.347656 164.867188 167.21875 C 162.890625 165.375 161.160156 163.273438 159.796875 161.054688 C 159.304688 160.070312 159.671875 158.835938 160.539062 158.339844 C 161.53125 157.722656 162.765625 158.097656 163.257812 159.082031 C 164.375 160.933594 165.859375 162.78125 167.46875 164.261719 C 171.800781 167.964844 175.753906 167.835938 179.839844 171.417969 C 179.964844 171.539062 180.210938 171.660156 180.335938 171.785156 C 180.828125 165.863281 179.839844 159.453125 174.890625 155.628906 C 171.550781 152.792969 166.972656 152.050781 162.269531 153.285156 C 160.042969 153.777344 157.941406 154.765625 156.082031 156.125 L 155.960938 156.246094 C 151.132812 159.082031 146.679688 160.6875 142.597656 160.6875 C 138.394531 160.6875 134.683594 159.203125 131.339844 156.125 L 131.21875 155.996094 C 129.484375 154.148438 128.246094 151.804688 127.503906 149.335938 C 126.886719 146.871094 126.886719 144.277344 127.378906 141.691406 C 128 139.101562 129.234375 136.753906 130.84375 134.78125 C 132.578125 132.933594 134.683594 131.328125 137.03125 130.46875 C 137.898438 129.972656 138.886719 129.605469 140 129.234375 C 138.394531 126.644531 137.527344 123.808594 137.277344 120.96875 C 137.03125 117.148438 137.898438 113.199219 139.875 109.742188 C 141.980469 106.289062 144.953125 103.699219 148.539062 102.09375 C 151.132812 100.863281 154.105469 100.246094 157.074219 100.371094 C 157.320312 98.148438 158.066406 96.050781 159.175781 94.199219 C 160.664062 91.859375 162.765625 89.761719 165.484375 88.40625 C 168.085938 87.171875 171.054688 86.554688 173.898438 86.921875 C 176.125 87.050781 179.714844 88.285156 182.933594 91.859375 C 177.242188 93.832031 176.5 99.136719 171.550781 102.710938 C 170.5625 103.453125 169.570312 104.070312 168.457031 104.5625 C 169.078125 104.933594 169.570312 105.425781 170.066406 106.042969 C 172.789062 108.757812 174.644531 112.210938 175.386719 116.15625 C 175.511719 117.265625 174.894531 118.253906 173.777344 118.5 C 172.664062 118.625 171.671875 118.007812 171.429688 116.898438 C 170.933594 113.691406 169.445312 110.976562 167.34375 108.757812 C 165.117188 106.65625 162.398438 105.054688 159.175781 104.5625 C 156.082031 103.945312 152.867188 104.316406 150.144531 105.671875 C 147.300781 106.90625 144.953125 109.003906 143.34375 111.714844 C 141.730469 114.433594 140.992188 117.636719 141.238281 120.59375 C 141.488281 123.3125 142.351562 125.902344 143.957031 128.121094 C 145.074219 127.875 146.433594 127.503906 147.796875 127.257812 C 147.300781 125.039062 147.425781 122.695312 148.167969 120.59375 C 149.773438 116.28125 157.941406 113.199219 160.785156 107.03125 L 161.652344 108.140625 C 163.257812 110.113281 164.253906 112.332031 164.625 114.679688 C 164.992188 117.148438 164.746094 119.609375 163.757812 121.828125 C 162.890625 124.175781 161.402344 126.148438 159.425781 127.628906 C 157.570312 129.105469 155.34375 130.222656 152.867188 130.46875 C 149.402344 130.957031 146.558594 131.574219 144.085938 132.070312 C 141.859375 132.6875 140 133.300781 138.765625 133.917969 L 138.636719 134.042969 C 136.785156 134.78125 135.175781 135.894531 133.9375 137.371094 C 132.699219 138.851562 131.710938 140.578125 131.339844 142.554688 C 130.847656 144.527344 130.847656 146.5 131.339844 148.351562 C 131.835938 150.203125 132.824219 151.804688 134.183594 153.28125 C 136.410156 155.378906 139.136719 156.613281 141.980469 156.738281 C 141.730469 156.492188 141.609375 156.367188 141.488281 156.121094 C 139.632812 154.273438 138.515625 151.679688 138.515625 148.84375 C 138.636719 146.011719 139.753906 143.414062 141.609375 141.5625 C 143.585938 139.46875 146.1875 138.484375 149.035156 138.234375 C 152.867188 137.867188 155.464844 138.730469 158.808594 139.839844 C 158.808594 139.101562 158.929688 138.234375 159.054688 137.5 C 161.035156 128.371094 167.589844 129.105469 173.898438 125.65625 C 175.015625 125.039062 176.003906 124.296875 176.992188 123.3125 L 179.714844 120.84375 L 180.335938 124.425781 C 180.832031 127.628906 180.582031 130.835938 179.46875 133.671875 C 178.230469 136.511719 176.375 139.101562 173.777344 141.074219 C 171.300781 143.046875 168.210938 144.160156 165.117188 144.527344 C 163.757812 144.648438 162.269531 144.648438 160.785156 144.527344 C 156.453125 143.910156 154.226562 141.691406 149.402344 142.179688 C 147.425781 142.308594 145.691406 142.925781 144.453125 144.277344 C 143.21875 145.511719 142.597656 147.117188 142.476562 148.847656 C 142.476562 150.570312 143.21875 152.296875 144.332031 153.410156 C 145.445312 154.640625 146.808594 155.378906 148.414062 155.503906 C 150.144531 154.890625 152 154.023438 153.855469 152.792969 C 156.082031 151.308594 158.683594 150.074219 161.28125 149.460938 C 165.734375 148.222656 168.828125 148.222656 172.789062 149.832031 C 172.789062 149.089844 172.789062 148.222656 172.910156 147.488281 C 173.28125 145.882812 173.898438 144.527344 174.890625 143.292969 C 175.882812 142.0625 177.121094 141.195312 178.601562 140.457031 C 179.589844 140.085938 180.707031 140.457031 181.203125 141.445312 C 181.570312 142.429688 181.203125 143.660156 180.207031 144.160156 C 179.34375 144.527344 178.601562 145.019531 177.980469 145.761719 C 174.027344 150.691406 179.34375 153.777344 181.445312 157.105469 C 185.035156 163.027344 184.914062 170.550781 183.675781 177.214844 C 184.789062 181.527344 184.664062 189.917969 184.046875 194.480469 C 183.179688 200.152344 181.074219 205.335938 175.015625 208.296875 C 172.414062 209.652344 169.445312 210.269531 166.480469 210.148438 C 163.507812 210.019531 160.664062 209.160156 158.1875 207.679688 C 156.210938 206.324219 154.476562 204.71875 153.117188 202.621094 C 151.382812 202.871094 149.527344 202.742188 147.917969 202.375 C 145.8125 201.757812 143.835938 200.523438 142.226562 198.921875 C 140.621094 197.195312 139.503906 195.222656 139.011719 193.003906 C 138.515625 190.902344 138.636719 188.5625 139.382812 186.464844 L 139.753906 185.230469 L 140.992188 185.109375 C 143.09375 184.738281 145.195312 184.980469 147.179688 185.597656 C 149.15625 186.339844 151.011719 187.449219 152.496094 189.054688 C 153.117188 189.671875 153.734375 190.410156 154.226562 191.273438 C 154.722656 192.011719 155.09375 192.875 155.464844 193.742188 C 155.714844 194.605469 155.960938 195.59375 156.082031 196.578125 C 156.210938 197.5625 156.210938 198.550781 156.210938 199.539062 C 156.210938 199.664062 156.082031 199.910156 156.082031 200.03125 Z M 156.082031 200.03125 " fill-opacity="1" fill-rule="nonzero"/></g></svg>